<svg height="512" viewBox="0 0 56 57" width="512" xmlns="http://www.w3.org/2000/svg"><g id="Page-1" fill="none" fill-rule="evenodd"><g id="038---Hairdryer" fill="rgb(0,0,0)" fill-rule="nonzero" transform="translate(-1 -1)"><path id="Shape" d="m14 53c-1.0233525.0007374-2.0388467-.1786665-3-.53v2.53c.0032948 1.1032019.8967981 1.9967052 2 2h2c1.1032019-.0032948 1.9967052-.8967981 2-2v-2.54c-.9599757.3568058-1.9758596.5396649-3 .54zm8-21h-2.4c.1517532 1.686381.4359636 3.3582071.85 5h1.55c.5522847 0 1-.4477153 1-1v-3c0-.5522847-.4477153-1-1-1zm-3.2 6.72c-.6905385-2.5180445-1.1095917-5.1027645-1.25-7.71v-.02c-.0129183-.8189834.0338723-1.6378192.14-2.45-1.7436694.4409383-3.552181.5662472-5.34.37-.6886812-.0745559-1.3706638-.2015918-2.04-.38.48 3.46-.32 6.88-1.11 10.2-.61389343 2.243626-1.01236485 4.5406965-1.19 6.86.0003995.0468585-.00294447.093674-.01.14 0 2.94 2.69 5.27 6 5.27 1.7325516.0224299 3.3999362-.659682 4.62-1.89.9187946-.9325487 1.4141263-2.2016103 1.37-3.51-.1759032-2.326091-.5743926-4.6299625-1.19-6.88zm-4.8 10.28c-1.265005.0926027-2.4983096-.4237507-3.32-1.39-.75097657-1.1338223-.98711262-2.5324743-.65-3.85.1491291-.5161023.6793873-.8221608 1.2008781-.6931322.5214908.1290287.8478565.6470354.7391219 1.1731322-.1826131.7273386-.0787933 1.4970371.29 2.15.4580926.4557091 1.0976362.6799169 1.74.61.5522847 0 1 .4477153 1 1s-.4477153 1-1 1zm14.43-42.12c-2.1243163-.14816421-4.1315931-1.02811475-5.68-2.49-5.0865533-4.635579-12.90455641-4.50380047-17.83199194.3005721-4.92743553 4.80437257-5.25686442 12.6165436-.75139052 17.8186894 4.50547391 5.2021459 12.28462836 5.9916359 17.74338246 1.8007385 1.5774975-1.2468026 3.494218-1.9890962 5.5-2.13l16.123-1.08c.2631777-.0174071.467575-.2362479.467-.5v-12.2c.0006096-.26339169-.2032172-.48209002-.466-.5zm-16.43-1.88h4c.5522847 0 1 .44771525 1 1s-.4477153 1-1 1h-4c-.5522847 0-1-.44771525-1-1s.4477153-1 1-1zm-4 4h12c.5522847 0 1 .44771525 1 1 0 .5522847-.4477153 1-1 1h-12c-.55228475 0-1-.4477153-1-1 0-.55228475.44771525-1 1-1zm8 14h-4c-.5522847 0-1-.4477153-1-1s.4477153-1 1-1h4c.5522847 0 1 .4477153 1 1s-.4477153 1-1 1zm4-4h-12c-.55228475 0-1-.4477153-1-1s.44771525-1 1-1h12c.5522847 0 1 .4477153 1 1s-.4477153 1-1 1zm4-4h-20c-.55228475 0-1-.4477153-1-1s.44771525-1 1-1h20c.5522847 0 1 .4477153 1 1s-.4477153 1-1 1zm32.54-11.72c-.2883132-.18399224-.651021-.20666148-.96-.06l-1.58.73v4.05c0 .55228475-.4477153 1-1 1s-1-.44771525-1-1v-3.13l-5.71 2.636c-.1768981.081868-.2900928.25907615-.29.454v13.08c-.0000928.1949239.1131019.372132.29.454l5.71 2.636v-12.13c0-.5522847.4477153-1 1-1s1 .4477153 1 1v13.05l1.58.73c.3098653.1470124.673629.1238966.9623928-.0611563s.4617295-.5058974.4576072-.8488437v-20.74c.0028559-.34353951-.1708372-.66449413-.46-.85z"/><path id="Shape" d="m46.21 49.16c-6.25 6.25-12.58 10.05-14.14 8.49l-7.78-7.78c-.3877236-.3900375-.3877236-1.0199625 0-1.41l1.066-1.066c.0938043-.0940417.2211727-.1468938.354-.1468938s.2601957.0528521.354.1468938l6.006 6.016c.190164.1849909.4447023.2889572.71.29.2649285-.0028872.5188084-.1065846.71-.29.3899779-.3930079.3899779-1.0269921 0-1.42l-6.016-6.006c-.0940417-.0938043-.1468938-.2211727-.1468938-.354s.0528521-.2601957.1468938-.354l.712-.712c.0938043-.0940417.2211727-.1468938.354-.1468938s.2601957.0528521.354.1468938l6.006 6.016c.3921222.3893607 1.0256393.3871222 1.415-.005s.3871222-1.0256393-.005-1.415l-6.01-6.006c-.0940417-.0938043-.1468938-.2211727-.1468938-.354s.0528521-.2601957.1468938-.354l.7-.7c.1952499-.195191.5117501-.195191.707 0l6.023 6.004c.2443899.2853762.6281184.4096819.993419.3218101.3653005-.0878718.6505193-.3730906.7383911-.7383911.0878718-.3653006-.0364339-.7490291-.3218101-.993419l-6.007-6.016c-.195191-.1952499-.195191-.5117501 0-.707l.7-.7c.1952499-.195191.5117501-.195191.707 0l6.02 6.003c.3900375.3877236 1.0199625.3877236 1.41 0 .3877236-.3900375.3877236-1.0199625 0-1.41l-6.007-6.016c-.195191-.1952499-.195191-.5117501 0-.707l.7-.7c.0938043-.0940417.2211727-.1468938.354-.1468938s.2601957.0528521.354.1468938l6.009 6.003c.1877037.1899246.442981.2977883.71.3.4039042-.0025003.7670662-.2465637.9219521-.6195988.154886-.3730352.0713969-.8025501-.2119521-1.0904012l-6.008-6.008c-.1945254-.1951349-.1945254-.5108651 0-.706l.705-.71c.0938441-.0943486.2214272-.1473958.3545-.1473958s.2606559.0530472.3545.1473958l6.005 6c.3893608.3921221 1.0228778.3943607 1.415.005.3921221-.3893608.3943607-1.0228778.005-1.415l-6.016-6.006c-.0940417-.0938043-.1468938-.2211727-.1468938-.354s.0528521-.2601957.1468938-.354l.712-.712c.0938043-.0940417.2211727-.1468938.354-.1468938s.2601957.0528521.354.1468938l6.005 6.02c.190164.1849909.4447023.2889572.71.29.2649285-.0028872.5188084-.1065846.71-.29.3899779-.3930079.3899779-1.0269921 0-1.42l-6.016-6.006c-.0940417-.0938043-.1468938-.2211727-.1468938-.354s.0528521-.2601957.1468938-.354l1.066-1.066c.3900375-.3877236 1.0199625-.3877236 1.41 0l7.78 7.78c1.56 1.56-2.24 7.9-8.49 14.14z"/></g></g></svg>